<svg xmlns="http://www.w3.org/2000/svg" xmlns:xlink="http://www.w3.org/1999/xlink" viewBox="0 0 230 245.964"><defs><style>.a{fill:url(#a);}.b{fill:#54b047;}.c{fill:url(#b);}.d{fill:#fff;}.e{fill:#40803d;}</style><linearGradient id="a" x1="13.017" y1="128" x2="242.998" y2="128" gradientUnits="userSpaceOnUse"><stop offset="0" stop-color="#54b047"/><stop offset="1" stop-color="#40803d"/></linearGradient><linearGradient id="b" x1="29.525" y1="189.358" x2="243" y2="189.358" xlink:href="#a"/></defs><title>keb-final</title><path class="a" d="M136.261,127.736,239.022,24.976a11.692,11.692,0,0,0-8.267-19.958H24.707a11.691,11.691,0,0,0-11.69,11.691V239.291a11.69,11.69,0,0,0,11.69,11.691H231.284a11.69,11.69,0,0,0,8.266-19.957Z" transform="translate(-13 -5.018)"/><path class="b" d="M135.848,5.022H24.691A11.69,11.69,0,0,0,13,16.712V127.87Z" transform="translate(-13 -5.018)"/><path class="c" d="M239.552,231.025l-103.29-103.29L32.972,231.025a11.69,11.69,0,0,0,8.267,19.957H231.286A11.69,11.69,0,0,0,239.552,231.025Z" transform="translate(-13 -5.018)"/><path class="d" d="M73.514,234.945H60.755L46.872,212.616l-4.749,3.408v18.921H30.886V181.951H42.123V206.2l4.422-6.234L60.9,181.951H73.369L54.882,205.4Z" transform="translate(-13 -5.018)"/><path class="d" d="M110.7,234.945H80.183V181.951H110.7v9.207H91.42v11.636h17.943V212H91.42v13.665H110.7Z" transform="translate(-13 -5.018)"/><path class="d" d="M121.759,181.951h16.493q11.272,0,16.365,3.208t5.094,10.2a12.85,12.85,0,0,1-2.23,7.793,8.9,8.9,0,0,1-5.926,3.661v.362q5.038,1.125,7.267,4.2a13.676,13.676,0,0,1,2.229,8.192q0,7.249-5.236,11.31t-14.229,4.059H121.759ZM133,202.938h6.525q4.566,0,6.616-1.413t2.047-4.676a4.682,4.682,0,0,0-2.229-4.368q-2.231-1.323-7.05-1.323H133Zm0,8.917v13.811h7.322q4.639,0,6.85-1.776a6.557,6.557,0,0,0,2.212-5.437q0-6.6-9.424-6.6Z" transform="translate(-13 -5.018)"/><path class="e" d="M94.32,26.47h25.374a0,0,0,0,1,0,0v96.123a12,12,0,0,1-12,12H106.32a12,12,0,0,1-12-12V26.47A0,0,0,0,1,94.32,26.47Z" transform="translate(226.618 56.793) rotate(135)"/><path class="e" d="M223.091,5.018l-104.77,104.77,17.943,17.942L239.019,24.975a11.69,11.69,0,0,0-8.266-19.957Z" transform="translate(-13 -5.018)"/></svg>